<svg width="22" height="22" viewBox="0 0 22 22" fill="none" xmlns="http://www.w3.org/2000/svg">
<path d="M9.74999 1.83399C9.74999 1.14363 10.3096 0.583984 11 0.583984C11.6904 0.583984 12.25 1.14363 12.25 1.83399V20.1673C12.25 20.8577 11.6904 21.4173 11 21.4173C10.3096 21.4173 9.74999 20.8577 9.74999 20.1673V1.83399Z" fill="white"/>
<path d="M20.1666 9.75046C20.857 9.75046 21.4166 10.3101 21.4166 11.0005C21.4166 11.6908 20.857 12.2505 20.1666 12.2505L1.83325 12.2505C1.1429 12.2505 0.583252 11.6908 0.583252 11.0005C0.583252 10.3101 1.1429 9.75046 1.83325 9.75046L20.1666 9.75046Z" fill="white"/>
</svg>
