<svg width="32" height="32" viewBox="0 0 32 32" fill="none" xmlns="http://www.w3.org/2000/svg">
<circle cx="16" cy="16" r="14.5" stroke="white" stroke-width="3"/>
<path d="M14.5 9.5C14.5 8.94772 14.9477 8.5 15.5 8.5H16.5C17.0523 8.5 17.5 8.94772 17.5 9.5V22.5C17.5 23.0523 17.0523 23.5 16.5 23.5H15.5C14.9477 23.5 14.5 23.0523 14.5 22.5V9.5Z" fill="white"/>
<path d="M22.5 14.5C23.0523 14.5 23.5 14.9477 23.5 15.5V16.5C23.5 17.0523 23.0523 17.5 22.5 17.5L9.5 17.5C8.94771 17.5 8.5 17.0523 8.5 16.5L8.5 15.5C8.5 14.9477 8.94772 14.5 9.5 14.5L22.5 14.5Z" fill="white"/>
</svg>
