<svg width="22" height="20" viewBox="0 0 22 20" fill="none" xmlns="http://www.w3.org/2000/svg">
<path d="M13.4997 5.8335H15.9997C16.5468 5.8335 17.0887 5.94127 17.5942 6.15066C18.0997 6.36006 18.559 6.66697 18.946 7.05388C19.3329 7.4408 19.6398 7.90013 19.8492 8.40565C20.0586 8.91117 20.1663 9.45299 20.1663 10.0002C20.1663 10.5473 20.0586 11.0892 19.8492 11.5947C19.6398 12.1002 19.3329 12.5595 18.946 12.9464C18.559 13.3334 18.0997 13.6403 17.5942 13.8497C17.0887 14.0591 16.5468 14.1668 15.9997 14.1668H13.4997M8.49967 14.1668H5.99967C5.4525 14.1668 4.91068 14.0591 4.40516 13.8497C3.89964 13.6403 3.44031 13.3334 3.0534 12.9464C2.27199 12.165 1.83301 11.1052 1.83301 10.0002C1.83301 8.89509 2.27199 7.83529 3.0534 7.05388C3.8348 6.27248 4.89461 5.8335 5.99967 5.8335H8.49967" stroke="white" stroke-width="2" stroke-linecap="round" stroke-linejoin="round"/>
<path d="M7.66699 10H14.3337" stroke="white" stroke-width="2" stroke-linecap="round" stroke-linejoin="round"/>
</svg>
