<svg width="167" height="36" viewBox="0 0 167 36" fill="none" xmlns="http://www.w3.org/2000/svg">
<path d="M15.6558 33.6413C7.00936 33.6413 3.7795e-07 26.632 0 17.9855C-3.7795e-07 9.33901 7.00936 2.32965 15.6558 2.32965C16.1018 2.32965 16.2362 2.91595 15.8628 3.15968C11.0252 6.3169 7.82792 11.7778 7.82792 17.9855C7.82792 21.757 10.4428 24.9177 13.9585 25.7536C14.5534 25.8951 15.1742 25.97 15.8124 25.97C18.0929 25.97 20.1501 25.0139 21.605 23.4807C22.6868 22.3407 23.4356 20.8818 23.6958 19.2595C23.7623 18.8446 23.7969 18.4191 23.7969 17.9855C23.7969 17.1455 23.7871 16.255 24.3015 15.5909C25.0174 14.6666 26.1381 14.0715 27.3977 14.0715C29.5593 14.0715 31.3117 15.8239 31.3117 17.9855C31.3117 20.8125 30.5624 23.4644 29.2516 25.7536C27.5298 28.7607 24.8391 31.1418 21.605 32.4714C20.2075 33.0459 18.7085 33.4241 17.1424 33.5717C16.6531 33.6178 16.1572 33.6413 15.6558 33.6413Z" fill="url(#paint0_radial_3210_35580)"/>
<path d="M27.5543 2.32965C36.2007 2.32965 43.2101 9.33901 43.2101 17.9855C43.2101 26.632 36.2007 33.6413 27.5543 33.6413C27.1083 33.6413 26.9739 33.055 27.3473 32.8113C32.1849 29.6541 35.3822 24.1932 35.3822 17.9855C35.3822 14.214 32.7673 11.0533 29.2516 10.2173C28.6567 10.0759 28.0359 10.001 27.3977 10.001C25.1172 10.001 23.06 10.9571 21.605 12.4903C20.5233 13.6302 19.7745 15.0892 19.5143 16.7115C19.4478 17.1263 19.4132 17.5519 19.4132 17.9855C19.4132 18.8254 19.423 19.7159 18.9086 20.38C18.1927 21.3044 17.072 21.8994 15.8124 21.8994C13.6508 21.8994 11.8984 20.1471 11.8984 17.9855C11.8984 15.1585 12.6477 12.5066 13.9585 10.2173C15.6803 7.21031 18.371 4.82921 21.605 3.4996C23.0026 2.92503 24.5016 2.54683 26.0677 2.39931C26.557 2.35322 27.0529 2.32965 27.5543 2.32965Z" fill="url(#paint1_radial_3210_35580)"/>
<path d="M64.3882 32.9713C62.4692 32.9713 60.7284 32.7242 59.1657 32.23C57.6305 31.7085 56.3146 30.9535 55.2181 29.9653C54.1489 28.9495 53.3127 27.6867 52.7096 26.1769C52.1339 24.667 51.8461 22.9101 51.8461 20.9061V4.42679C51.8461 3.97638 52.2112 3.61124 52.6616 3.61124H58.4324C58.8828 3.61124 59.248 3.97638 59.248 4.4268V20.0413C59.248 22.2649 59.6318 23.9532 60.3994 25.1062C61.167 26.2318 62.4966 26.7945 64.3882 26.7945C66.3346 26.7945 67.6779 26.2318 68.4181 25.1062C69.1583 23.9532 69.5284 22.2787 69.5284 20.0825V4.42679C69.5284 3.97638 69.8936 3.61124 70.344 3.61124H76.1148C76.5652 3.61124 76.9303 3.97638 76.9303 4.4268V20.9061C76.9303 22.9101 76.6425 24.667 76.0668 26.1769C75.4911 27.6867 74.6549 28.9495 73.5584 29.9653C72.4892 30.9535 71.1733 31.7085 69.6107 32.23C68.0755 32.7242 66.3346 32.9713 64.3882 32.9713Z" fill="url(#paint2_radial_3210_35580)"/>
<path d="M80.2942 4.4268C80.2942 3.97638 80.6593 3.61124 81.1097 3.61124H87.3766C87.675 3.61124 87.9495 3.77419 88.0925 4.03611L95.8382 18.2295L103.502 4.03923C103.645 3.77557 103.92 3.61124 104.22 3.61124H110.32C110.77 3.61124 111.136 3.97638 111.136 4.4268V31.6204C111.136 32.0708 110.77 32.4359 110.32 32.4359H104.549C104.099 32.4359 103.734 32.0708 103.734 31.6204V15.9235L98.0357 26.3905C97.8725 26.6903 97.5585 26.8769 97.2171 26.8769H94.2126C93.8712 26.8769 93.5572 26.6903 93.394 26.3905L87.6961 15.9235V31.6204C87.6961 32.0708 87.331 32.4359 86.8805 32.4359H81.1097C80.6593 32.4359 80.2942 32.0708 80.2942 31.6204V4.4268Z" fill="url(#paint3_radial_3210_35580)"/>
<path d="M131.559 26.9181H121.936L120.156 31.8951C120.04 32.2195 119.732 32.4359 119.388 32.4359H114.136C113.57 32.4359 113.176 31.8735 113.37 31.3416L123.262 4.14798C123.38 3.82574 123.686 3.61124 124.029 3.61124H130.288C130.631 3.61124 130.938 3.82574 131.055 4.14798L140.947 31.3416C141.141 31.8735 140.747 32.4359 140.181 32.4359H134.107C133.762 32.4359 133.455 32.2195 133.339 31.8951L131.559 26.9181ZM124.033 21.2355H129.461L126.747 12.6704L124.033 21.2355Z" fill="url(#paint4_radial_3210_35580)"/>
<path d="M143.284 4.4268C143.284 3.97638 143.649 3.61124 144.099 3.61124H155.003C159.006 3.61124 161.953 4.48971 163.844 6.24664C165.763 7.97612 166.723 10.3782 166.723 13.4528C166.723 16.5275 165.763 18.9432 163.844 20.7002C161.953 22.4297 159.006 23.2944 155.003 23.2944H150.685V31.6204C150.685 32.0708 150.32 32.4359 149.87 32.4359H144.099C143.649 32.4359 143.284 32.0708 143.284 31.6204V4.4268ZM154.181 17.2C156.072 17.2 157.402 16.8843 158.17 16.2529C158.937 15.6215 159.321 14.6882 159.321 13.4528C159.321 12.2175 158.937 11.2841 158.17 10.6527C157.402 10.0213 156.072 9.7056 154.181 9.7056H150.685V17.2H154.181Z" fill="url(#paint5_radial_3210_35580)"/>
<defs>
<radialGradient id="paint0_radial_3210_35580" cx="0" cy="0" r="1" gradientUnits="userSpaceOnUse" gradientTransform="translate(-0.372662 2.39952) rotate(11.6485) scale(199.106 91.1771)">
<stop stop-color="#12DC76"/>
<stop offset="0.546479" stop-color="#1493AE"/>
<stop offset="1" stop-color="#167EDD"/>
</radialGradient>
<radialGradient id="paint1_radial_3210_35580" cx="0" cy="0" r="1" gradientUnits="userSpaceOnUse" gradientTransform="translate(-0.372662 2.39952) rotate(11.6485) scale(199.106 91.1771)">
<stop stop-color="#12DC76"/>
<stop offset="0.546479" stop-color="#1493AE"/>
<stop offset="1" stop-color="#167EDD"/>
</radialGradient>
<radialGradient id="paint2_radial_3210_35580" cx="0" cy="0" r="1" gradientUnits="userSpaceOnUse" gradientTransform="translate(-0.372662 2.39952) rotate(11.6485) scale(199.106 91.1771)">
<stop stop-color="#12DC76"/>
<stop offset="0.546479" stop-color="#1493AE"/>
<stop offset="1" stop-color="#167EDD"/>
</radialGradient>
<radialGradient id="paint3_radial_3210_35580" cx="0" cy="0" r="1" gradientUnits="userSpaceOnUse" gradientTransform="translate(-0.372662 2.39952) rotate(11.6485) scale(199.106 91.1771)">
<stop stop-color="#12DC76"/>
<stop offset="0.546479" stop-color="#1493AE"/>
<stop offset="1" stop-color="#167EDD"/>
</radialGradient>
<radialGradient id="paint4_radial_3210_35580" cx="0" cy="0" r="1" gradientUnits="userSpaceOnUse" gradientTransform="translate(-0.372662 2.39952) rotate(11.6485) scale(199.106 91.1771)">
<stop stop-color="#12DC76"/>
<stop offset="0.546479" stop-color="#1493AE"/>
<stop offset="1" stop-color="#167EDD"/>
</radialGradient>
<radialGradient id="paint5_radial_3210_35580" cx="0" cy="0" r="1" gradientUnits="userSpaceOnUse" gradientTransform="translate(-0.372662 2.39952) rotate(11.6485) scale(199.106 91.1771)">
<stop stop-color="#12DC76"/>
<stop offset="0.546479" stop-color="#1493AE"/>
<stop offset="1" stop-color="#167EDD"/>
</radialGradient>
</defs>
</svg>
