<svg width="115" height="36" viewBox="0 0 115 36" fill="none" xmlns="http://www.w3.org/2000/svg">
<path d="M75.0887 29.5045C73.1661 29.5045 71.5597 29.0112 70.2696 28.0247C68.9794 27.0128 68.3343 25.4949 68.3343 23.4711C68.3343 21.1438 69.1944 19.4868 70.9147 18.5002C72.6602 17.4883 75.4176 16.9824 79.1869 16.9824H80.5909V16.8685C80.5909 16.3373 80.5656 15.9325 80.515 15.6542C80.4644 15.3507 80.3 15.0724 80.0217 14.8194C79.7434 14.5412 79.3387 14.402 78.8074 14.402C77.7955 14.402 77.2137 14.9712 77.0619 16.1096H69.0174C69.1438 13.6811 70.1051 11.8091 71.9012 10.4936C73.7227 9.17813 76.2018 8.5204 79.3387 8.5204C82.5261 8.5204 84.9547 9.17813 86.6243 10.4936C88.3192 11.7838 89.1667 13.6937 89.1667 16.2234V28.9733H80.8186V26.7345C79.8067 28.5812 77.8967 29.5045 75.0887 29.5045ZM78.4659 23.8126C79.0983 23.8126 79.6043 23.6482 79.9837 23.3193C80.3885 22.9652 80.5909 22.5351 80.5909 22.0292V21.3841H79.2628C78.2762 21.3841 77.6311 21.4853 77.3275 21.6877C77.024 21.8647 76.8722 22.2063 76.8722 22.7122C76.8722 23.4458 77.4034 23.8126 78.4659 23.8126Z" fill="#50DB97"/>
<path d="M75.0887 29.5045C73.1661 29.5045 71.5597 29.0112 70.2696 28.0247C68.9794 27.0128 68.3343 25.4949 68.3343 23.4711C68.3343 21.1438 69.1944 19.4868 70.9147 18.5002C72.6602 17.4883 75.4176 16.9824 79.1869 16.9824H80.5909V16.8685C80.5909 16.3373 80.5656 15.9325 80.515 15.6542C80.4644 15.3507 80.3 15.0724 80.0217 14.8194C79.7434 14.5412 79.3387 14.402 78.8074 14.402C77.7955 14.402 77.2137 14.9712 77.0619 16.1096H69.0174C69.1438 13.6811 70.1051 11.8091 71.9012 10.4936C73.7227 9.17813 76.2018 8.5204 79.3387 8.5204C82.5261 8.5204 84.9547 9.17813 86.6243 10.4936C88.3192 11.7838 89.1667 13.6937 89.1667 16.2234V28.9733H80.8186V26.7345C79.8067 28.5812 77.8967 29.5045 75.0887 29.5045ZM78.4659 23.8126C79.0983 23.8126 79.6043 23.6482 79.9837 23.3193C80.3885 22.9652 80.5909 22.5351 80.5909 22.0292V21.3841H79.2628C78.2762 21.3841 77.6311 21.4853 77.3275 21.6877C77.024 21.8647 76.8722 22.2063 76.8722 22.7122C76.8722 23.4458 77.4034 23.8126 78.4659 23.8126Z" fill="url(#paint0_radial_1001_10997)"/>
<path d="M75.0887 29.5045C73.1661 29.5045 71.5597 29.0112 70.2696 28.0247C68.9794 27.0128 68.3343 25.4949 68.3343 23.4711C68.3343 21.1438 69.1944 19.4868 70.9147 18.5002C72.6602 17.4883 75.4176 16.9824 79.1869 16.9824H80.5909V16.8685C80.5909 16.3373 80.5656 15.9325 80.515 15.6542C80.4644 15.3507 80.3 15.0724 80.0217 14.8194C79.7434 14.5412 79.3387 14.402 78.8074 14.402C77.7955 14.402 77.2137 14.9712 77.0619 16.1096H69.0174C69.1438 13.6811 70.1051 11.8091 71.9012 10.4936C73.7227 9.17813 76.2018 8.5204 79.3387 8.5204C82.5261 8.5204 84.9547 9.17813 86.6243 10.4936C88.3192 11.7838 89.1667 13.6937 89.1667 16.2234V28.9733H80.8186V26.7345C79.8067 28.5812 77.8967 29.5045 75.0887 29.5045ZM78.4659 23.8126C79.0983 23.8126 79.6043 23.6482 79.9837 23.3193C80.3885 22.9652 80.5909 22.5351 80.5909 22.0292V21.3841H79.2628C78.2762 21.3841 77.6311 21.4853 77.3275 21.6877C77.024 21.8647 76.8722 22.2063 76.8722 22.7122C76.8722 23.4458 77.4034 23.8126 78.4659 23.8126Z" fill="url(#paint1_radial_1001_10997)"/>
<path d="M91.8478 35.5V9.12754H100.537V11.8976C101.878 9.64613 103.839 8.5204 106.419 8.5204C108.746 8.5204 110.669 9.41846 112.187 11.2146C113.73 12.9854 114.502 15.5657 114.502 18.9555V19.2591C114.502 22.649 113.717 25.204 112.149 26.9242C110.606 28.6444 108.671 29.5045 106.343 29.5045C104.977 29.5045 103.776 29.2136 102.738 28.6318C101.726 28.0247 100.993 27.2278 100.537 26.2412V35.5H91.8478ZM102.928 22.9399C104.775 22.9399 105.698 21.675 105.698 19.1453V18.8417C105.698 16.2108 104.775 14.8953 102.928 14.8953C101.183 14.8953 100.31 16.1981 100.31 18.8038V19.1073C100.31 21.6624 101.183 22.9399 102.928 22.9399Z" fill="#50DB97"/>
<path d="M91.8478 35.5V9.12754H100.537V11.8976C101.878 9.64613 103.839 8.5204 106.419 8.5204C108.746 8.5204 110.669 9.41846 112.187 11.2146C113.73 12.9854 114.502 15.5657 114.502 18.9555V19.2591C114.502 22.649 113.717 25.204 112.149 26.9242C110.606 28.6444 108.671 29.5045 106.343 29.5045C104.977 29.5045 103.776 29.2136 102.738 28.6318C101.726 28.0247 100.993 27.2278 100.537 26.2412V35.5H91.8478ZM102.928 22.9399C104.775 22.9399 105.698 21.675 105.698 19.1453V18.8417C105.698 16.2108 104.775 14.8953 102.928 14.8953C101.183 14.8953 100.31 16.1981 100.31 18.8038V19.1073C100.31 21.6624 101.183 22.9399 102.928 22.9399Z" fill="url(#paint2_radial_1001_10997)"/>
<path d="M91.8478 35.5V9.12754H100.537V11.8976C101.878 9.64613 103.839 8.5204 106.419 8.5204C108.746 8.5204 110.669 9.41846 112.187 11.2146C113.73 12.9854 114.502 15.5657 114.502 18.9555V19.2591C114.502 22.649 113.717 25.204 112.149 26.9242C110.606 28.6444 108.671 29.5045 106.343 29.5045C104.977 29.5045 103.776 29.2136 102.738 28.6318C101.726 28.0247 100.993 27.2278 100.537 26.2412V35.5H91.8478ZM102.928 22.9399C104.775 22.9399 105.698 21.675 105.698 19.1453V18.8417C105.698 16.2108 104.775 14.8953 102.928 14.8953C101.183 14.8953 100.31 16.1981 100.31 18.8038V19.1073C100.31 21.6624 101.183 22.9399 102.928 22.9399Z" fill="url(#paint3_radial_1001_10997)"/>
<path d="M13.1673 28.8725C8.91731 28.8725 5.65396 27.8606 3.3772 25.8368C1.12573 23.7877 0 20.7647 0 16.7677V1.20975H10.0936V16.4641C10.0936 18.0579 10.2834 19.2089 10.6628 19.9172C11.0676 20.6256 11.9024 20.9797 13.1673 20.9797C14.3815 20.9797 15.1658 20.6382 15.5199 19.9552C15.8741 19.2468 16.0512 18.1085 16.0512 16.54V13.1993C16.0512 9.0758 17.2148 5.39504 19.5422 3.42184C20.8879 2.28315 22.5362 1.47728 24.4871 1.00424C25.8735 0.66808 27.4126 0.5 29.1046 0.5C30.194 0.5 31.2185 0.566483 32.1782 0.69945C32.7442 0.77787 33.2877 0.879416 33.8086 1.00409C35.8503 1.49272 37.5457 2.33658 38.8947 3.53568C41.1461 5.58477 42.2719 8.39423 42.2719 12.3912C43.7391 9.96266 45.8575 8.74836 48.6149 8.74836C51.1194 8.74836 52.8522 9.77292 53.8135 11.822C55.5843 9.77292 57.7346 8.74836 60.2643 8.74836C62.2122 8.74836 63.7554 9.38081 64.8938 10.6457C66.0574 11.8852 66.6393 13.6308 66.6393 15.8823V28.5689H57.9876V17.7037C57.9876 17.0965 57.8232 16.6159 57.4943 16.2617C57.1907 15.8823 56.7986 15.6925 56.318 15.6925C55.0531 15.6925 54.4207 16.4768 54.4207 18.0452V28.5689H45.8449V17.7037C45.8449 17.0965 45.6804 16.6159 45.3516 16.2617C45.048 15.8823 44.6559 15.6925 44.1752 15.6925C42.9104 15.6925 42.2779 16.4768 42.2779 18.0452V28.5689H32.1782V13.5408C32.1782 11.947 31.9885 10.1636 31.609 9.45526C31.2043 8.74693 30.3695 8.39277 29.1046 8.39277C27.8903 8.39277 27.1061 8.73429 26.7519 9.41731C26.3978 10.1256 26.2207 11.8965 26.2207 13.4649V16.8056C26.2207 20.9291 25.057 23.9774 22.7297 25.9506C20.4276 27.8985 17.2401 28.8725 13.1673 28.8725Z" fill="#50DB97"/>
<path d="M13.1673 28.8725C8.91731 28.8725 5.65396 27.8606 3.3772 25.8368C1.12573 23.7877 0 20.7647 0 16.7677V1.20975H10.0936V16.4641C10.0936 18.0579 10.2834 19.2089 10.6628 19.9172C11.0676 20.6256 11.9024 20.9797 13.1673 20.9797C14.3815 20.9797 15.1658 20.6382 15.5199 19.9552C15.8741 19.2468 16.0512 18.1085 16.0512 16.54V13.1993C16.0512 9.0758 17.2148 5.39504 19.5422 3.42184C20.8879 2.28315 22.5362 1.47728 24.4871 1.00424C25.8735 0.66808 27.4126 0.5 29.1046 0.5C30.194 0.5 31.2185 0.566483 32.1782 0.69945C32.7442 0.77787 33.2877 0.879416 33.8086 1.00409C35.8503 1.49272 37.5457 2.33658 38.8947 3.53568C41.1461 5.58477 42.2719 8.39423 42.2719 12.3912C43.7391 9.96266 45.8575 8.74836 48.6149 8.74836C51.1194 8.74836 52.8522 9.77292 53.8135 11.822C55.5843 9.77292 57.7346 8.74836 60.2643 8.74836C62.2122 8.74836 63.7554 9.38081 64.8938 10.6457C66.0574 11.8852 66.6393 13.6308 66.6393 15.8823V28.5689H57.9876V17.7037C57.9876 17.0965 57.8232 16.6159 57.4943 16.2617C57.1907 15.8823 56.7986 15.6925 56.318 15.6925C55.0531 15.6925 54.4207 16.4768 54.4207 18.0452V28.5689H45.8449V17.7037C45.8449 17.0965 45.6804 16.6159 45.3516 16.2617C45.048 15.8823 44.6559 15.6925 44.1752 15.6925C42.9104 15.6925 42.2779 16.4768 42.2779 18.0452V28.5689H32.1782V13.5408C32.1782 11.947 31.9885 10.1636 31.609 9.45526C31.2043 8.74693 30.3695 8.39277 29.1046 8.39277C27.8903 8.39277 27.1061 8.73429 26.7519 9.41731C26.3978 10.1256 26.2207 11.8965 26.2207 13.4649V16.8056C26.2207 20.9291 25.057 23.9774 22.7297 25.9506C20.4276 27.8985 17.2401 28.8725 13.1673 28.8725Z" fill="url(#paint4_radial_1001_10997)"/>
<path d="M13.1673 28.8725C8.91731 28.8725 5.65396 27.8606 3.3772 25.8368C1.12573 23.7877 0 20.7647 0 16.7677V1.20975H10.0936V16.4641C10.0936 18.0579 10.2834 19.2089 10.6628 19.9172C11.0676 20.6256 11.9024 20.9797 13.1673 20.9797C14.3815 20.9797 15.1658 20.6382 15.5199 19.9552C15.8741 19.2468 16.0512 18.1085 16.0512 16.54V13.1993C16.0512 9.0758 17.2148 5.39504 19.5422 3.42184C20.8879 2.28315 22.5362 1.47728 24.4871 1.00424C25.8735 0.66808 27.4126 0.5 29.1046 0.5C30.194 0.5 31.2185 0.566483 32.1782 0.69945C32.7442 0.77787 33.2877 0.879416 33.8086 1.00409C35.8503 1.49272 37.5457 2.33658 38.8947 3.53568C41.1461 5.58477 42.2719 8.39423 42.2719 12.3912C43.7391 9.96266 45.8575 8.74836 48.6149 8.74836C51.1194 8.74836 52.8522 9.77292 53.8135 11.822C55.5843 9.77292 57.7346 8.74836 60.2643 8.74836C62.2122 8.74836 63.7554 9.38081 64.8938 10.6457C66.0574 11.8852 66.6393 13.6308 66.6393 15.8823V28.5689H57.9876V17.7037C57.9876 17.0965 57.8232 16.6159 57.4943 16.2617C57.1907 15.8823 56.7986 15.6925 56.318 15.6925C55.0531 15.6925 54.4207 16.4768 54.4207 18.0452V28.5689H45.8449V17.7037C45.8449 17.0965 45.6804 16.6159 45.3516 16.2617C45.048 15.8823 44.6559 15.6925 44.1752 15.6925C42.9104 15.6925 42.2779 16.4768 42.2779 18.0452V28.5689H32.1782V13.5408C32.1782 11.947 31.9885 10.1636 31.609 9.45526C31.2043 8.74693 30.3695 8.39277 29.1046 8.39277C27.8903 8.39277 27.1061 8.73429 26.7519 9.41731C26.3978 10.1256 26.2207 11.8965 26.2207 13.4649V16.8056C26.2207 20.9291 25.057 23.9774 22.7297 25.9506C20.4276 27.8985 17.2401 28.8725 13.1673 28.8725Z" fill="url(#paint5_radial_1001_10997)"/>
<defs>
<radialGradient id="paint0_radial_1001_10997" cx="0" cy="0" r="1" gradientUnits="userSpaceOnUse" gradientTransform="translate(-8 -7) rotate(38.7175) scale(77.5403 50.5587)">
<stop stop-color="#0C75F1"/>
<stop offset="1" stop-color="#0C75F1" stop-opacity="0"/>
</radialGradient>
<radialGradient id="paint1_radial_1001_10997" cx="0" cy="0" r="1" gradientUnits="userSpaceOnUse" gradientTransform="translate(132.5 -16) rotate(124.173) scale(65.873 47.5321)">
<stop stop-color="#0C75F1"/>
<stop offset="1" stop-color="#0C75F1" stop-opacity="0"/>
</radialGradient>
<radialGradient id="paint2_radial_1001_10997" cx="0" cy="0" r="1" gradientUnits="userSpaceOnUse" gradientTransform="translate(-8 -7) rotate(38.7175) scale(77.5403 50.5587)">
<stop stop-color="#0C75F1"/>
<stop offset="1" stop-color="#0C75F1" stop-opacity="0"/>
</radialGradient>
<radialGradient id="paint3_radial_1001_10997" cx="0" cy="0" r="1" gradientUnits="userSpaceOnUse" gradientTransform="translate(132.5 -16) rotate(124.173) scale(65.873 47.5321)">
<stop stop-color="#0C75F1"/>
<stop offset="1" stop-color="#0C75F1" stop-opacity="0"/>
</radialGradient>
<radialGradient id="paint4_radial_1001_10997" cx="0" cy="0" r="1" gradientUnits="userSpaceOnUse" gradientTransform="translate(-8 -7) rotate(38.7175) scale(77.5403 50.5587)">
<stop stop-color="#0C75F1"/>
<stop offset="1" stop-color="#0C75F1" stop-opacity="0"/>
</radialGradient>
<radialGradient id="paint5_radial_1001_10997" cx="0" cy="0" r="1" gradientUnits="userSpaceOnUse" gradientTransform="translate(132.5 -16) rotate(124.173) scale(65.873 47.5321)">
<stop stop-color="#0C75F1"/>
<stop offset="1" stop-color="#0C75F1" stop-opacity="0"/>
</radialGradient>
</defs>
</svg>
