<svg width="23" height="26" viewBox="0 0 23 26" fill="none" xmlns="http://www.w3.org/2000/svg">
<path d="M3.96 22.832H0.72V19.088H3.96V17H0.72V12.536H3.96V0.799998H12.96C14.496 0.799998 15.84 0.991999 16.992 1.376C18.168 1.76 19.152 2.312 19.944 3.032C20.736 3.728 21.324 4.58 21.708 5.588C22.116 6.572 22.32 7.676 22.32 8.9C22.32 10.124 22.116 11.24 21.708 12.248C21.324 13.232 20.736 14.084 19.944 14.804C19.152 15.5 18.168 16.04 16.992 16.424C15.84 16.808 14.496 17 12.96 17H9.36V19.088H17.28V22.832H9.36V26H3.96V22.832ZM12.42 12.536C14.004 12.536 15.144 12.224 15.84 11.6C16.56 10.952 16.92 10.052 16.92 8.9C16.92 7.748 16.584 6.86 15.912 6.236C15.24 5.588 14.076 5.264 12.42 5.264H9.36V12.536H12.42Z" fill="white"/>
</svg>
