<svg width="17" height="20" viewBox="0 0 17 20" fill="none" xmlns="http://www.w3.org/2000/svg">
<path d="M3.40492 16.808H0.884922V14.792H3.40492V12.44H0.884922V10.144H3.40492V0.399999H9.56492C10.7223 0.399999 11.7303 0.549332 12.5889 0.848C13.4663 1.14667 14.1943 1.56667 14.7729 2.108C15.3703 2.63067 15.8183 3.26533 16.1169 4.012C16.4156 4.74 16.5649 5.54267 16.5649 6.42C16.5649 7.29733 16.4156 8.10933 16.1169 8.856C15.8183 9.584 15.3703 10.2187 14.7729 10.76C14.1943 11.2827 13.4663 11.6933 12.5889 11.992C11.7303 12.2907 10.7223 12.44 9.56492 12.44H6.03692V14.792H12.6449V16.808H6.03692V20H3.40492V16.808ZM9.42492 10.144C11.0303 10.144 12.1783 9.808 12.8689 9.136C13.5783 8.464 13.9329 7.55867 13.9329 6.42C13.9329 5.28133 13.5783 4.376 12.8689 3.704C12.1783 3.032 11.0303 2.696 9.42492 2.696H6.03692V10.144H9.42492Z" fill="white"/>
</svg>
