<svg width="48" height="48" viewBox="0 0 48 48" fill="none" xmlns="http://www.w3.org/2000/svg">
<g clip-path="url(#clip0_4142_31059)">
<path d="M24 4C20.5566 4 14.8491 4.13953 11.5472 4.55814C6.9717 5.11628 5.17925 7.44186 4.66038 11.6744C4.28302 14.9302 4 19.6279 4 24C4 28.3721 4.09434 33.1163 4.66038 36.3721C5.41509 40.5581 7.4434 42.7907 11.5472 43.4419C14.8491 44 20.8868 44 24 44C27.1132 44 33.1509 44 36.4528 43.4419C40.6038 42.7907 42.5377 40.5581 43.3396 36.3256C43.9057 33.1163 44 28.1395 44 23.9535C44 19.7674 43.6226 14.186 43.3396 11.6279C42.8679 7.25581 40.9811 5.11628 36.4528 4.51163C33.1509 4.09302 27.4906 4 24 4ZM38.0094 8.51163C38.9057 8.88372 40.4623 11.1628 40.0849 13.6279C38.3396 14.9767 36.2641 16 34.283 16.2791V32.093H40.2264C40.2264 34.5116 39.8491 36.4651 39.4245 37.1628H28.5283V16.5581H20.934V28.8837C20.934 35.0698 17.3962 38.1395 12.8679 38.1395C11.5943 38.1395 10.0849 38 8.76415 37.6279C8.15094 36.8372 7.86792 34.4186 7.82075 31.4419C10.8396 32.8837 14.8962 33.5349 15.2264 28.8837V17.3023C10.6509 17.814 8.95283 20.9767 7.39623 23.0698C7.4434 20.2326 7.58491 17.6744 7.72641 15.9535C10.8396 12.6512 14.3774 11.0698 21.2642 11.0698H31.1226C33.5283 11.1163 35.8396 10.2326 38.0094 8.51163Z" fill="#37B34A"/>
</g>
<defs>
<clipPath id="clip0_4142_31059">
<rect x="4" y="4" width="40" height="40" rx="8" fill="white"/>
</clipPath>
</defs>
</svg>
