<svg width="48" height="48" viewBox="0 0 48 48" fill="none" xmlns="http://www.w3.org/2000/svg">
<rect x="4" y="4" width="40" height="40" rx="8" fill="#131422" fill-opacity="0.6"/>
<g clip-path="url(#clip0_4142_31320)">
<path d="M21.6886 12.6132L15.2288 12.9814C14.6127 13.0165 14.1252 13.5344 14.107 14.1733L13.8789 22.1722C13.8685 22.5375 14.0155 22.8888 14.2801 23.1307L16.0507 24.7496C16.3724 25.0437 16.8222 25.1352 17.2273 24.9889L22.5878 23.0542C23.0885 22.8735 23.4128 22.3709 23.3826 21.8226L22.9394 13.7714C22.9021 13.0941 22.3425 12.5759 21.6886 12.6132Z" fill="#3F3F3F"/>
<path d="M12.3128 31.2273C15.0127 31.2273 17.2013 28.9603 17.2013 26.1637C17.2013 23.3672 15.0127 21.1001 12.3128 21.1001C9.61297 21.1001 7.42432 23.3672 7.42432 26.1637C7.42432 28.9603 9.61297 31.2273 12.3128 31.2273Z" fill="#3F3F3F"/>
<path d="M10.3791 23.6094L9.84033 24.1675L14.2416 28.7264L14.7804 28.1683L10.3791 23.6094Z" fill="#9CADE5"/>
<path d="M14.242 23.6094L9.84131 28.169L10.3802 28.727L14.7809 24.1674L14.242 23.6094Z" fill="#9CADE5"/>
<path d="M21.6436 34.8244C25.1141 34.8244 27.9275 31.9103 27.9275 28.3155C27.9275 24.7208 25.1141 21.8066 21.6436 21.8066C18.1732 21.8066 15.3599 24.7208 15.3599 28.3155C15.3599 31.9103 18.1732 34.8244 21.6436 34.8244Z" fill="#2B2B2B"/>
<path d="M21.6441 32.3033C19.5165 32.3033 17.7947 30.5095 17.7947 28.3159C17.7947 26.1121 19.5264 24.3286 21.6441 24.3286C23.7717 24.3286 25.4936 26.1224 25.4936 28.3159C25.4936 30.5197 23.7618 32.3033 21.6441 32.3033ZM21.6441 25.4972C20.14 25.4972 18.9228 26.7682 18.9228 28.3159C18.9228 29.8637 20.1499 31.1347 21.6441 31.1347C23.1384 31.1347 24.3654 29.8637 24.3654 28.3159C24.3654 26.7682 23.1483 25.4972 21.6441 25.4972Z" fill="#F15053"/>
<path d="M13.1971 12.6315L7.57261 12.3593C6.9175 12.3276 6.36162 12.852 6.33101 13.5305L5.9874 21.1483C5.95679 21.8269 6.46305 22.4027 7.11816 22.4344L12.7427 22.7066C13.3978 22.7383 13.9536 22.2139 13.9842 21.5353L14.3279 13.9175C14.3584 13.239 13.8522 12.6632 13.1971 12.6315Z" fill="#2B2B2B"/>
<path d="M30.3532 13.0799L23.7653 12.7611C23.1102 12.7294 22.5543 13.2538 22.5237 13.9324L22.182 21.5089C22.1617 21.9574 22.379 22.3817 22.7489 22.6158L26.467 24.9694C26.8383 25.2045 27.3041 25.2103 27.6809 24.9846L31.342 22.7905C31.732 22.5567 31.9607 22.1145 31.9325 21.6487L31.4829 14.2315C31.4449 13.6054 30.9581 13.1092 30.3532 13.0799Z" fill="#2B2B2B"/>
<path d="M38.8244 11.8956L32.1898 12.2875C31.535 12.3262 31.0345 12.9074 31.0718 13.5856L31.561 22.4717C31.5984 23.1499 32.1595 23.6684 32.8142 23.6297L39.4489 23.2378C40.1036 23.1991 40.6043 22.6179 40.5668 21.9397L40.0775 13.0536C40.0403 12.3754 39.4793 11.8569 38.8244 11.8956Z" fill="#3F3F3F"/>
<path d="M11.4703 21.4682H8.77458V16.6189H6.91455L7.22006 13.9663L13.3303 14.2828V16.6189H11.4703V21.4682ZM9.36763 20.8445H10.8682V15.9953H12.7283V14.8971L7.8221 14.5806L7.51659 15.9953H9.37663V20.8445H9.36763Z" fill="#9CADE5"/>
<path d="M18.8119 21.1099H15.4783V14.6226H18.6502C19.414 14.6226 20.016 14.7715 20.4473 15.0786C20.9146 15.4044 21.1482 15.8698 21.1482 16.4561C21.1482 16.7912 21.0673 17.0891 20.9146 17.3496C20.8427 17.4706 20.7618 17.5824 20.663 17.6754C20.8337 17.7871 20.9775 17.9267 21.0943 18.0849C21.301 18.3642 21.3998 18.7179 21.3998 19.1088C21.3998 19.7324 21.1572 20.235 20.681 20.5887C20.2407 20.9423 19.6117 21.1099 18.8119 21.1099ZM16.0264 20.5514H18.8119C19.4949 20.5514 20.016 20.4118 20.3754 20.1419C20.7079 19.8906 20.8787 19.5462 20.8787 19.1088C20.8787 18.8296 20.8158 18.6062 20.681 18.42C20.5462 18.2339 20.3395 18.0849 20.0699 17.9826L19.5128 17.7778L20.034 17.48C20.2317 17.3683 20.3754 17.2286 20.4833 17.0518C20.5821 16.8843 20.6361 16.6888 20.6361 16.4561C20.6361 16.0652 20.4833 15.7581 20.1688 15.544C19.8273 15.302 19.3241 15.181 18.6682 15.181H16.0354V20.5514H16.0264ZM18.7221 19.7138H17.3832V18.2246H18.7221C19.1893 18.2246 19.4679 18.5038 19.4679 18.9599C19.4679 19.4345 19.1893 19.7138 18.7221 19.7138ZM17.9224 19.1553H18.7221C18.9108 19.1553 18.9288 19.0995 18.9288 18.9599C18.9288 18.8389 18.9198 18.783 18.7221 18.783H17.9224V19.1553ZM18.4705 17.4614H17.3832V16.0187H18.4705C18.9378 16.0187 19.2163 16.2886 19.2163 16.7447C19.2163 17.1914 18.9378 17.4614 18.4705 17.4614ZM17.9224 16.9029H18.4705C18.6772 16.9029 18.6772 16.8471 18.6772 16.754C18.6772 16.6516 18.6772 16.5864 18.4705 16.5864H17.9224V16.9029Z" fill="#39DEC8"/>
<path d="M26.8466 21.2922C26.1547 21.2922 25.5167 21.1433 24.9596 20.8361C24.3935 20.529 23.9532 20.1008 23.6297 19.561C23.3063 19.0212 23.1445 18.3976 23.1445 17.7181C23.1445 17.0387 23.3063 16.4244 23.6297 15.8752C23.9532 15.3354 24.3935 14.9073 24.9596 14.6001C25.5167 14.3023 26.1457 14.144 26.8466 14.144C27.5475 14.144 28.1765 14.293 28.7336 14.6001C29.2997 14.9073 29.74 15.3354 30.0635 15.8752C30.3869 16.4151 30.5487 17.0387 30.5487 17.7181C30.5487 18.3976 30.3869 19.0119 30.0635 19.561C29.74 20.1008 29.2997 20.529 28.7336 20.8361C28.1765 21.1433 27.5475 21.2922 26.8466 21.2922ZM26.8466 14.749C26.2446 14.749 25.6964 14.8793 25.2292 15.1399C24.7619 15.3913 24.3845 15.7542 24.124 16.201C23.8634 16.6478 23.7286 17.169 23.7286 17.7367C23.7286 18.3045 23.8634 18.8164 24.124 19.2725C24.3845 19.7192 24.7619 20.0822 25.2292 20.3335C25.7054 20.5941 26.2446 20.7244 26.8466 20.7244C27.4486 20.7244 27.9968 20.5941 28.464 20.3335C28.9313 20.0822 29.3087 19.7192 29.5693 19.2725C29.8298 18.8257 29.9646 18.3138 29.9646 17.7367C29.9646 17.169 29.8298 16.6571 29.5693 16.201C29.3087 15.7542 28.9313 15.3913 28.464 15.1399C27.9968 14.8793 27.4486 14.749 26.8466 14.749ZM26.8466 19.5796C26.5411 19.5796 26.2625 19.5052 26.0109 19.3469C25.7594 19.1887 25.5617 18.9653 25.4179 18.6861C25.2741 18.4069 25.2022 18.0811 25.2022 17.7181C25.2022 17.3551 25.2741 17.0294 25.4179 16.7502C25.5617 16.4709 25.7594 16.2475 26.0109 16.0893C26.2625 15.9311 26.5411 15.8566 26.8466 15.8566C27.1521 15.8566 27.4307 15.9311 27.6823 16.0893C27.9339 16.2475 28.1315 16.4709 28.2753 16.7502C28.4191 17.0294 28.491 17.3551 28.491 17.7181C28.491 18.0811 28.4191 18.4069 28.2753 18.6861C28.1315 18.9653 27.9339 19.1887 27.6823 19.3469C27.4396 19.5052 27.1521 19.5796 26.8466 19.5796ZM26.8466 16.4523C26.6489 16.4523 26.4692 16.4989 26.3075 16.6012C26.1457 16.7036 26.0199 16.8432 25.9211 17.0294C25.8223 17.2248 25.7773 17.4482 25.7773 17.7181C25.7773 17.988 25.8312 18.2114 25.9211 18.4069C26.0199 18.593 26.1457 18.742 26.3075 18.835C26.4692 18.9374 26.6399 18.984 26.8466 18.984C27.0443 18.984 27.224 18.9374 27.3858 18.835C27.5475 18.7326 27.6733 18.593 27.7721 18.4069C27.871 18.2114 27.9159 17.988 27.9159 17.7181C27.9159 17.4482 27.862 17.2248 27.7721 17.0294C27.6733 16.8432 27.5475 16.6943 27.3858 16.6012C27.224 16.5081 27.0533 16.4523 26.8466 16.4523Z" fill="#F15053"/>
<path d="M33.9358 37.9514C38.4283 37.9514 42.0703 34.1791 42.0703 29.5258C42.0703 24.8724 38.4283 21.1001 33.9358 21.1001C29.4434 21.1001 25.8015 24.8724 25.8015 29.5258C25.8015 34.1791 29.4434 37.9514 33.9358 37.9514Z" fill="#3F3F3F"/>
<path d="M39.3294 33.1337H28.5627L33.946 23.3857L39.3294 33.1337ZM30.8486 31.7601H37.0533L33.9559 26.143L30.8486 31.7601Z" fill="#39DEC8"/>
<path d="M39.9523 31.7598H27.929V33.1333H39.9523V31.7598Z" fill="#39DEC8"/>
<path d="M39.0493 22.1859L36.3985 21.6461L36.4884 19.1145L34.7811 21.5809L32.4448 21.4879L32.6874 14.712L34.6643 14.7865C34.5385 14.7213 34.4306 14.6468 34.3318 14.5538C33.9904 14.228 33.8196 13.7626 33.8466 13.167L33.8556 12.8784L35.7606 12.9529L35.7515 13.2414C35.7426 13.3903 35.7695 13.4648 35.7875 13.4834C35.7965 13.4927 35.8504 13.5206 35.9852 13.5299C36.1559 13.5393 36.2008 13.4927 36.2008 13.4927C36.2098 13.4927 36.2458 13.4462 36.2547 13.26L36.2637 12.9715L38.1687 13.046L38.1597 13.3345C38.1417 13.9302 37.9351 14.3862 37.5667 14.6841C37.4678 14.7678 37.351 14.833 37.2162 14.8888L39.1931 14.9633L39.0493 22.1859ZM36.9826 21.0783L38.5101 21.5716L38.609 15.5218L37.1443 15.4659L34.5025 19.2727L34.6463 15.3728L33.2266 15.317L33.0199 20.9294L34.4936 20.9853L37.1174 17.1878L36.9826 21.0783ZM35.2304 14.9819L35.1405 17.346L36.7579 15.0098C36.5153 15.0564 36.2368 15.0657 35.9223 15.0564C35.6707 15.0564 35.437 15.0285 35.2304 14.9819ZM34.7092 14.1256C34.9428 14.3397 35.3562 14.4607 35.9403 14.4886C36.5333 14.5072 36.9556 14.4235 37.2072 14.228C37.3869 14.0884 37.4948 13.8836 37.5487 13.6137L36.7579 13.5858C36.722 13.7254 36.6591 13.8371 36.5692 13.9209C36.4255 14.0605 36.2188 14.1256 35.9403 14.1163C35.6617 14.107 35.464 14.0232 35.3292 13.865C35.2573 13.7719 35.2034 13.6602 35.1855 13.5206L34.4037 13.4927C34.4486 13.7533 34.5475 13.9674 34.7092 14.1256Z" fill="#39DEC8"/>
</g>
<defs>
<clipPath id="clip0_4142_31320">
<rect width="36.4844" height="26.3498" fill="white" transform="translate(5.75781 11.8252)"/>
</clipPath>
</defs>
</svg>
